<mxfile host="app.diagrams.net" modified="2024-02-02T03:00:15.461Z" agent="Mozilla/5.0 (Windows NT 10.0; Win64; x64) AppleWebKit/537.36 (KHTML, like Gecko) Chrome/121.0.0.0 Safari/537.36" version="23.1.1" etag="aIMBNt_eQXEG__KF2Jy5" type="github">
  <diagram name="第 1 页" id="2qigmBXlNi6uA3VnO9rl">
    <mxGraphModel>
      <root>
        <mxCell id="0" />
        <mxCell id="1" parent="0" />
      </root>
    </mxGraphModel>
  </diagram>
</mxfile>
